<mxfile host="app.diagrams.net" modified="2021-12-05T21:43:37.876Z" agent="5.0 (Windows NT 10.0; Win64; x64) AppleWebKit/537.36 (KHTML, like Gecko) Chrome/96.0.4664.45 Safari/537.36" etag="f8u7sWrsZNzSzKqqPCO5" version="15.9.1" type="github">
  <diagram id="U5bPqu_zEoDWXBXVL5_a" name="Page-1">
    <mxGraphModel dx="1422" dy="798" grid="1" gridSize="10" guides="1" tooltips="1" connect="1" arrows="1" fold="1" page="1" pageScale="1" pageWidth="827" pageHeight="1169" math="0" shadow="0">
      <root>
        <mxCell id="0" />
        <mxCell id="1" parent="0" />
        <mxCell id="gLJ6um8bHiymwD9wz3_6-1" style="edgeStyle=orthogonalEdgeStyle;rounded=0;orthogonalLoop=1;jettySize=auto;html=1;exitX=0.5;exitY=1;exitDx=0;exitDy=0;entryX=0;entryY=0.5;entryDx=0;entryDy=0;" edge="1" parent="1" source="gLJ6um8bHiymwD9wz3_6-5" target="gLJ6um8bHiymwD9wz3_6-13">
          <mxGeometry relative="1" as="geometry">
            <Array as="points">
              <mxPoint x="130" y="280" />
              <mxPoint x="380" y="280" />
              <mxPoint x="380" y="520" />
              <mxPoint x="700" y="520" />
            </Array>
          </mxGeometry>
        </mxCell>
        <mxCell id="gLJ6um8bHiymwD9wz3_6-2" value="01110" style="edgeLabel;html=1;align=center;verticalAlign=middle;resizable=0;points=[];" vertex="1" connectable="0" parent="gLJ6um8bHiymwD9wz3_6-1">
          <mxGeometry x="-0.1736" y="1" relative="1" as="geometry">
            <mxPoint as="offset" />
          </mxGeometry>
        </mxCell>
        <mxCell id="gLJ6um8bHiymwD9wz3_6-3" style="edgeStyle=orthogonalEdgeStyle;rounded=0;orthogonalLoop=1;jettySize=auto;html=1;" edge="1" parent="1" source="gLJ6um8bHiymwD9wz3_6-5" target="gLJ6um8bHiymwD9wz3_6-12">
          <mxGeometry relative="1" as="geometry">
            <Array as="points">
              <mxPoint x="130" y="240" />
              <mxPoint x="490" y="240" />
            </Array>
          </mxGeometry>
        </mxCell>
        <mxCell id="gLJ6um8bHiymwD9wz3_6-4" value="10101" style="edgeLabel;html=1;align=center;verticalAlign=middle;resizable=0;points=[];" vertex="1" connectable="0" parent="gLJ6um8bHiymwD9wz3_6-3">
          <mxGeometry x="0.025" y="3" relative="1" as="geometry">
            <mxPoint as="offset" />
          </mxGeometry>
        </mxCell>
        <mxCell id="gLJ6um8bHiymwD9wz3_6-5" value="user/User1" style="ellipse;whiteSpace=wrap;html=1;" vertex="1" parent="1">
          <mxGeometry x="70" y="130" width="120" height="70" as="geometry" />
        </mxCell>
        <mxCell id="gLJ6um8bHiymwD9wz3_6-12" value="group/Group2" style="ellipse;whiteSpace=wrap;html=1;" vertex="1" parent="1">
          <mxGeometry x="430" y="320" width="120" height="80" as="geometry" />
        </mxCell>
        <mxCell id="gLJ6um8bHiymwD9wz3_6-17" value="zone0" style="swimlane;strokeColor=#FF621F;" vertex="1" parent="1">
          <mxGeometry x="20" y="65" width="350" height="685" as="geometry" />
        </mxCell>
        <mxCell id="gLJ6um8bHiymwD9wz3_6-8" value="user/User4" style="ellipse;whiteSpace=wrap;html=1;" vertex="1" parent="gLJ6um8bHiymwD9wz3_6-17">
          <mxGeometry x="200" y="55" width="120" height="80" as="geometry" />
        </mxCell>
        <mxCell id="gLJ6um8bHiymwD9wz3_6-16" value="provider/Provider3" style="ellipse;whiteSpace=wrap;html=1;" vertex="1" parent="gLJ6um8bHiymwD9wz3_6-17">
          <mxGeometry x="90" y="515" width="120" height="80" as="geometry" />
        </mxCell>
        <mxCell id="gLJ6um8bHiymwD9wz3_6-18" value="zone1" style="swimlane;strokeColor=#FF621F;" vertex="1" parent="1">
          <mxGeometry x="410" y="70" width="210" height="680" as="geometry" />
        </mxCell>
        <mxCell id="gLJ6um8bHiymwD9wz3_6-6" value="user/User2" style="ellipse;whiteSpace=wrap;html=1;" vertex="1" parent="gLJ6um8bHiymwD9wz3_6-18">
          <mxGeometry x="40" y="55" width="120" height="80" as="geometry" />
        </mxCell>
        <mxCell id="gLJ6um8bHiymwD9wz3_6-15" value="provider/Provider2" style="ellipse;whiteSpace=wrap;html=1;" vertex="1" parent="gLJ6um8bHiymwD9wz3_6-18">
          <mxGeometry x="45" y="500" width="120" height="80" as="geometry" />
        </mxCell>
        <mxCell id="gLJ6um8bHiymwD9wz3_6-19" value="zone2" style="swimlane;strokeColor=#FF621F;" vertex="1" parent="1">
          <mxGeometry x="670" y="40" width="200" height="710" as="geometry" />
        </mxCell>
        <mxCell id="gLJ6um8bHiymwD9wz3_6-7" value="user/User3" style="ellipse;whiteSpace=wrap;html=1;" vertex="1" parent="gLJ6um8bHiymwD9wz3_6-19">
          <mxGeometry x="50" y="70" width="120" height="80" as="geometry" />
        </mxCell>
        <mxCell id="gLJ6um8bHiymwD9wz3_6-9" value="group/Group1" style="ellipse;whiteSpace=wrap;html=1;" vertex="1" parent="gLJ6um8bHiymwD9wz3_6-19">
          <mxGeometry x="37" y="260" width="120" height="80" as="geometry" />
        </mxCell>
        <mxCell id="gLJ6um8bHiymwD9wz3_6-20" style="edgeStyle=orthogonalEdgeStyle;rounded=0;orthogonalLoop=1;jettySize=auto;html=1;" edge="1" parent="gLJ6um8bHiymwD9wz3_6-19" source="gLJ6um8bHiymwD9wz3_6-13" target="gLJ6um8bHiymwD9wz3_6-14">
          <mxGeometry relative="1" as="geometry" />
        </mxCell>
        <mxCell id="gLJ6um8bHiymwD9wz3_6-21" value="10001" style="edgeLabel;html=1;align=center;verticalAlign=middle;resizable=0;points=[];" vertex="1" connectable="0" parent="gLJ6um8bHiymwD9wz3_6-20">
          <mxGeometry x="0.2222" y="1" relative="1" as="geometry">
            <mxPoint as="offset" />
          </mxGeometry>
        </mxCell>
        <mxCell id="gLJ6um8bHiymwD9wz3_6-13" value="space/Space1" style="ellipse;whiteSpace=wrap;html=1;" vertex="1" parent="gLJ6um8bHiymwD9wz3_6-19">
          <mxGeometry x="30" y="400" width="120" height="80" as="geometry" />
        </mxCell>
        <mxCell id="gLJ6um8bHiymwD9wz3_6-14" value="provider/Provider1" style="ellipse;whiteSpace=wrap;html=1;" vertex="1" parent="gLJ6um8bHiymwD9wz3_6-19">
          <mxGeometry x="30" y="570" width="120" height="80" as="geometry" />
        </mxCell>
      </root>
    </mxGraphModel>
  </diagram>
</mxfile>
